# xmcd
#
# Track frame offsets:
#	150
#	14442
#	29640
#	47012
#	65979
#	83717
#	95740
#	106235
#	117732
#	133381
#	145732
#	166533
#	183487
#	200056
#	214266
#
# Disc length: 3187 seconds
#
# Revision: 1
# Processed by: cddbd v1.5.2PL0 Copyright (c) Steve Scherf et al.
# Submitted via: audiograbber 1.83.01
#
DISCID=e70c710f
DTITLE=Dave Rea - Dreams of Home
DYEAR=1900
DGENRE=
TTITLE0=The Hand That Rocks The Cradle
TTITLE1=Tipperary On My Mind
TTITLE2=Cool Clear Water
TTITLE3=Dreams of Home
TTITLE4=In My Fathers House
TTITLE5=Saturday Night at Them Movies
TTITLE6=Theres the Door
TTITLE7=In My Own Peculiar Way
TTITLE8=My Son
TTITLE9=Come Back Home
TTITLE10=Michael Collins
TTITLE11=Back Home To My Donegal
TTITLE12=I Will Love You All My Life
TTITLE13=I Did What I Did For Maria
TTITLE14=Isle Of Innisfree
EXTD=
EXTT0=
EXTT1=
EXTT2=
EXTT3=
EXTT4=
EXTT5=
EXTT6=
EXTT7=
EXTT8=
EXTT9=
EXTT10=
EXTT11=
EXTT12=
EXTT13=
EXTT14=
PLAYORDER=
